<svg xmlns="http://www.w3.org/2000/svg" width="64" height="64" fill="#293447" viewBox="53.01 42.541 376.342 376.342"><path d="M238.734 274.754c.715-.2 1.629-.189 2.355-.184.778.005 1.768.021 2.539.184a4.5 4.5 0 0 1 1.651.734c.225.157.431.34.629.529.231.219.463.441.656.694.354.465.712 1.246.962 1.759.171.351.345.7.508 1.054.168.365.334.731.487 1.102.145.351.276.708.407 1.064.209.57.564 1.618.759 2.188q.195.577.394 1.152c.294.84.582 1.631.897 2.464.285.754.643 1.69.969 2.43.309.701.691 1.46 1.046 2.139.381.729.687 1.277 1.095 1.99a66 66 0 0 0 3.867 6.033c1.471 2.026 3.097 3.933 4.777 5.788q1.015 1.122 2.055 2.223c.443.468.895.945 1.351 1.401.43.431.836.813 1.275 1.234 1.031.988 1.435 1.364 2.438 2.379.347.351.862.907 1.181 1.281.389.456.822 1.017 1.181 1.495.416.555.75 1.023 1.143 1.594 1.234 1.793 2.372 3.655 3.33 5.611a36 36 0 0 1 1.057 2.383c.273.677.372.956.629 1.64.225.6.406 1.064.614 1.671.514 1.498.933 3.035 1.191 4.599q.09.534.153 1.071c.089.77.151 1.704.187 2.475.043.915.056 1.716.057 2.633.001.905-.012 1.734-.053 2.637a38 38 0 0 1-.191 2.531c-.046.383-.106.764-.17 1.144-.286 1.695-.725 3.362-1.237 5.002-.176.564-.371 1.122-.551 1.684-.145.453-.277.911-.428 1.363-.286.859-.53 1.526-.917 2.343-.478 1.01-.876 1.656-1.469 2.635-.154.255-.316.506-.477.757a54 54 0 0 1-1.543 2.259 83 83 0 0 1-1.038 1.409c-.298.394-.592.792-.9 1.179a26 26 0 0 1-1.887 2.139 40 40 0 0 1-3.297 2.96 46 46 0 0 1-2.455 1.865c-.552.39-1.161.802-1.738 1.155-.575.353-1.185.688-1.783 1.001-.615.322-1.195.606-1.826.895a54 54 0 0 1-2.821 1.179q-.455.175-.91.35c-.279.109-.556.224-.835.333a25.557 25.557 0 0 1-3.374 1.095 22.4 22.4 0 0 1-3.131.53 55 55 0 0 1-3.034.185 90 90 0 0 1-8.246-.078 30 30 0 0 1-2.608-.245 21.6 21.6 0 0 1-3.657-.852c-.858-.278-1.688-.62-2.519-.968a87 87 0 0 1-2.009-.863 54 54 0 0 1-4.03-2.008 40 40 0 0 1-1.791-1.044c-.476-.308-.949-.62-1.409-.951-.858-.618-1.572-1.226-2.36-1.929-.38-.339-.746-.693-1.124-1.035-.413-.373-.834-.738-1.247-1.11a38 38 0 0 1-2.481-2.437 26 26 0 0 1-1.166-1.346c-.763-.958-1.441-1.985-2.08-3.028a40 40 0 0 1-1.835-3.334 52 52 0 0 1-1.267-2.823q-.194-.468-.384-.938c-.274-.668-.438-1.042-.685-1.719a26 26 0 0 1-.89-2.998 40 40 0 0 1-.503-2.484c-.07-.423-.136-.846-.186-1.272-.193-1.644-.188-3.303-.183-4.955.004-1.351.012-2.701.09-4.051.025-.424.052-.848.093-1.27.169-1.722.545-3.423 1.027-5.083.27-.93.587-1.843.931-2.747.455-1.195.956-2.373 1.529-3.517s1.216-2.251 1.896-3.334c.342-.545.651-1.019 1.017-1.548a40 40 0 0 1 1.124-1.541 43 43 0 0 1 2.753-3.273 87 87 0 0 1 1.957-1.972c1.435-1.416 2.889-2.812 4.313-4.238a83 83 0 0 0 2.049-2.109 47 47 0 0 0 3.12-3.792c.493-.659.927-1.259 1.391-1.939 1.568-2.295 2.939-4.72 4.236-7.176a81 81 0 0 0 1.331-2.611c.381-.783.849-1.779 1.177-2.588.171-.421.325-.849.478-1.277.148-.414.286-.832.425-1.25.223-.67.55-1.683.749-2.367.106-.362.198-.727.3-1.09.139-.496.411-1.474.6-1.966.112-.293.224-.589.384-.859.161-.271.367-.513.572-.751.589-.684 1.157-1.088 1.875-1.695.248-.209.47-.451.74-.631.224-.149.469-.276.728-.348m-2.936-186.446c.423-.049.847-.08 1.272-.107 1.308-.084 2.617-.08 3.927-.077 1.415.003 2.831.006 4.244.086.441.025.883.053 1.323.098.745.076 1.498.206 2.233.354 1.306.263 2.595.618 3.865 1.021.611.194 1.127.375 1.732.582.526.18 1.056.35 1.579.538 1.113.401 1.829.687 2.894 1.196q.708.34 1.399.713a35.04 35.04 0 0 1 5.132 3.322 42 42 0 0 1 3.768 3.346c.998.991 1.964 2.022 2.845 3.119.427.532.869 1.136 1.261 1.694a47 47 0 0 1 2.212 3.475c.248.428.699 1.237.931 1.682.569 1.093.939 1.806 1.407 2.937.422 1.018.709 1.885 1.04 2.936.163.519.327 1.038.472 1.562.232.838.43 1.653.592 2.501q.265 1.384.404 2.788c.071.722.122 1.486.156 2.21a52 52 0 0 1 .01 4.736 41 41 0 0 1-.166 2.352 34.4 34.4 0 0 1-.99 5.275 32 32 0 0 1-.968 3.044 40 40 0 0 1-.864 2.087 47 47 0 0 1-2.022 4.001c-.268.475-.733 1.27-1.029 1.741-.647 1.032-.9 1.447-1.651 2.386-.981 1.227-2.087 2.34-3.202 3.444-.481.477-1.712 1.683-2.182 2.144-1.168 1.147-2.34 2.29-3.492 3.452a97 97 0 0 0-2.196 2.276c-1.145 1.252-2.201 2.585-3.211 3.946a64 64 0 0 0-5.016 7.921 50 50 0 0 0-1.56 3.142c-.169.377-.335.756-.489 1.14a65 65 0 0 0-.947 2.598c-.259.745-.648 1.879-.889 2.633-.258.805-.49 1.619-.757 2.421-.212.637-.515 1.535-.833 2.136-.305.576-.777 1.196-1.2 1.691q-.304.356-.636.687c-.477.476-1.003.915-1.611 1.219-.531.266-1.411.431-1.991.482-.357.031-.717.021-1.076.019-.768-.005-1.539-.022-2.294-.184a6.5 6.5 0 0 1-1.866-.734 6.6 6.6 0 0 1-1.56-1.223 5 5 0 0 1-.543-.726c-.335-.529-.69-1.332-.921-1.898a63 63 0 0 1-.788-2.102c-.341-.942-.678-1.886-1.02-2.828-.379-1.043-.758-2.086-1.173-3.115q-.217-.541-.449-1.076a51 51 0 0 0-1.03-2.168 104.023 104.023 0 0 0-2.26-4.243 57 57 0 0 0-1.599-2.685 38 38 0 0 0-1.38-2.006c-.312-.425-.638-.84-.962-1.256-.205-.263-.892-1.103-1.088-1.344-.556-.684-.811-1.006-1.378-1.695-.49-.595-.999-1.203-1.497-1.791-.512-.604-.994-1.167-1.519-1.759a45 45 0 0 0-1.478-1.606c-.798-.804-1.682-1.523-2.538-2.263-.94-.813-1.475-1.259-2.356-2.141-.299-.3-.898-1.011-1.162-1.333a42 42 0 0 1-2.213-2.966 49 49 0 0 1-1.029-1.573 44 44 0 0 1-.967-1.589 32.5 32.5 0 0 1-2.101-4.306c-.669-1.695-1.154-3.461-1.55-5.238a41 41 0 0 1-.765-4.527 39 39 0 0 1-.168-2.278 46 46 0 0 1-.027-3.362 45 45 0 0 1 .293-4.093 29 29 0 0 1 .422-2.562q.192-.83.411-1.652c.114-.427.398-1.302.537-1.712a52 52 0 0 1 1.53-3.976c.3-.693.579-1.303.911-1.981.294-.599.651-1.293.985-1.873q.245-.424.509-.838c.82-1.297 1.752-2.52 2.737-3.695.486-.58.663-.769 1.158-1.339.297-.342.821-.96 1.128-1.294q.575-.63 1.166-1.245a30.433 30.433 0 0 1 2.6-2.355 39 39 0 0 1 3.242-2.324c1.164-.755 2.362-1.469 3.609-2.08 1.311-.642 2.673-1.166 4.037-1.682.309-.117.616-.236.926-.349a32 32 0 0 1 1.859-.621 39.314 39.314 0 0 1 4.621-1.076c.425-.071.852-.138 1.28-.187"/><path d="M146.245 42.796c.531-.054 1.066-.065 1.599-.089.563-.026 1.271-.028 1.831-.034.328-.003.657-.01.985-.01 60.573-.039 121.146-.078 181.719-.107.564 0 1.348.029 1.912.063.548.033 1.282.091 1.826.177.308.049.613.115.917.181.882.192 1.751.44 2.611.714.96.306 1.936.588 2.833 1.062.455.24.88.533 1.305.822.835.569 1.37 1.03 2.125 1.703.33.294.645.605.975.9.31.277.633.538.944.813.899.796 1.783 1.628 2.481 2.613.55.776.942 1.544 1.376 2.388.192.373.396.74.561 1.126.193.451.354.915.51 1.38.164.489.403 1.471.513 1.952.087.379.465 2.081.466 2.452.131 40.789.129 81.579.189 122.368.001.532-.007 1.065-.006 1.597.002 1.218.026 1.663 0 2.861-.014.653-.038 1.709-.183 2.367a6 6 0 0 1-.318.946c-.287.708-.72 1.368-1.15 1.99-.498.721-.607.83-1.253 1.361-.535.44-1.028.832-1.684 1.086-.638.247-1.649.388-2.311.474-1.118.145-1.481.141-2.613.26-.769.081-1.998.24-2.764.342-.749.1-1.838.24-2.588.392-1.209.246-2.377.672-3.518 1.132-1.16.468-1.74.756-2.844 1.314-.892.451-1.683.861-2.539 1.377-.872.526-1.514.985-2.354 1.56-.954.653-1.533 1.025-2.447 1.743-.987.775-1.544 1.285-2.447 2.172-.22.216-.427.443-.635.67a36 36 0 0 0-1.904 2.266 33 33 0 0 0-2.355 3.425c-.727 1.229-1.355 2.517-1.927 3.824-.571 1.306-1.09 2.64-1.498 4.006a33 33 0 0 0-.535 2.067c-.16.701-.287 1.324-.413 2.031a55 55 0 0 0-.52 3.732c-.047.434-.103.868-.136 1.303-.063.833-.065 1.45-.002 2.283.033.437.089.872.138 1.307q.156 1.394.378 2.78.245 1.532.585 3.047c.146.645.322 1.367.505 2.003.348 1.21.791 2.39 1.284 3.548.36.845.743 1.681 1.183 2.487q.223.414.469.816c.327.531.77 1.159 1.135 1.663.368.509.802 1.084 1.19 1.579.369.47.755.926 1.124 1.396.322.409.648.814.955 1.234.208.285.379.596.589.88.188.254.393.496.604.731.22.245.426.51.688.71.324.247.718.387 1.055.616.516.351 1.432 1.18 1.897 1.56a31 31 0 0 0 2.508 1.865c.379.254 1.21.72 1.603.935.593.324 1.125.598 1.73.9.613.306 1.162.572 1.786.855.4.181 1.31.582 1.732.736.492.18.986.353 1.487.506.468.143.943.264 1.418.381 1.108.274 1.829.413 2.967.581.363.054 1.526.163 1.877.198.744.074 1.203.12 1.946.2.317.034.634.065.951.104.746.092 1.942.261 2.566.476.839.288 1.464.802 2.111 1.377.66.587.851.804 1.315 1.56.189.308.384.617.518.953.194.484.351.984.461 1.493.075.349.072.711.091 1.067.035.648.042 1.98.042 2.605q.032 59.189.056 118.377c0 .536-.007 1.071-.006 1.607.002 1.229.027 1.648 0 2.862-.019.849-.052 1.832-.183 2.673-.142.91-.437 2.01-.681 2.896-.228.829-.474 1.684-.787 2.487-.213.547-.743 1.721-1.04 2.263-.649 1.188-1.463 2.275-2.356 3.29a26 26 0 0 1-2.221 2.239 19 19 0 0 1-1.234 1.017c-.907.677-1.708 1.13-2.692 1.682-.409.229-.813.473-1.238.671-1.047.488-2.146.839-3.268 1.101-.852.199-1.718.376-2.59.461-.544.053-1.091.066-1.637.091-.389.018-1.459.034-1.837.034-59.171.042-118.341.076-177.512.117-.721.001-1.441.013-2.162.015a85 85 0 0 1-2.987-.036c-.584-.02-1.27-.054-1.853-.111-.302-.03-.604-.062-.904-.11a21 21 0 0 1-1.82-.406 34 34 0 0 1-1.708-.506c-1.021-.333-1.862-.595-2.834-1.046a23 23 0 0 1-2.355-1.315 18 18 0 0 1-2.049-1.621 26 26 0 0 1-3.04-3.219 18 18 0 0 1-1.628-2.401c-.232-.403-.441-.818-.654-1.231-.188-.364-.387-.724-.547-1.101-.452-1.064-.748-2.173-1.005-3.296-.175-.762-.374-1.679-.467-2.454-.092-.769-.112-1.764-.124-2.535-.02-1.282-.002-1.534-.003-2.839-.02-39.687-.049-79.374-.067-119.061 0-.648.008-1.959.058-2.624.029-.386.058-.774.136-1.153.118-.574.448-1.455.707-1.989.362-.745.802-1.644 1.381-2.28.19-.209.425-.371.646-.547.552-.439 1.004-.795 1.671-1.057.627-.246 1.567-.397 2.221-.491 1.069-.154 1.406-.15 2.489-.273.44-.05.88-.11 1.319-.168.175-.023 2.398-.325 2.592-.353.867-.127 1.275-.187 2.098-.378a24 24 0 0 0 2.249-.661q.687-.234 1.359-.507c.45-.184.893-.386 1.332-.594 1.152-.545 1.854-.927 2.967-1.56.36-.205 1.114-.676 1.462-.9a59 59 0 0 0 2.161-1.465 37 37 0 0 0 3.427-2.714c.319-.287.946-.873 1.238-1.191.371-.404.738-.812 1.086-1.236 1.062-1.296 1.981-2.703 2.829-4.147.322-.549.645-1.117.95-1.676a55 55 0 0 0 1.755-3.494c.176-.385.571-1.275.721-1.681.396-1.075.631-1.809.917-2.905.24-.919.363-1.56.551-2.478.113-.55.241-1.098.336-1.651.078-.452.123-1.343.153-1.774.031-.444.072-.887.096-1.331a33 33 0 0 0-.013-4.102c-.122-1.686-.434-3.352-.817-4.997-.334-1.436-.724-2.863-1.223-4.251a35 35 0 0 0-1.289-3.074 43 43 0 0 0-1.519-2.93 38 38 0 0 0-1.107-1.826 32.6 32.6 0 0 0-4.252-5.252c-.211-.21-.422-.42-.642-.62-.964-.874-1.517-1.351-2.569-2.11-1.158-.836-2.386-1.568-3.625-2.277-1.686-.965-3.418-1.857-5.208-2.615-.276-.117-.551-.237-.832-.339a29 29 0 0 0-1.483-.504 28 28 0 0 0-1.423-.382 28 28 0 0 0-2.966-.582c-.363-.054-1.526-.163-1.877-.198-.567-.057-1.379-.138-1.946-.199-.317-.034-.634-.066-.951-.105-.748-.092-1.938-.26-2.566-.476-.836-.288-1.466-.803-2.111-1.376-.661-.587-.851-.804-1.315-1.561-.189-.308-.384-.617-.518-.953a9.3 9.3 0 0 1-.461-1.493c-.075-.349-.072-.711-.091-1.067-.035-.647-.042-1.98-.042-2.605-.019-40.948-.049-81.896-.05-122.844 0-.727.069-1.96.183-2.677.142-.895.461-2.074.705-2.946.15-.536.543-1.882.763-2.437.196-.494.403-.986.648-1.458.132-.254 1.332-2.119 1.447-2.286q.405-.586.842-1.15c.84-1.089 1.765-2.12 2.804-3.024.358-.311.725-.613 1.11-.891.845-.61 1.783-1.142 2.692-1.649.42-.234.835-.478 1.269-.685.979-.468 1.95-.814 2.991-1.12a14.6 14.6 0 0 1 2.346-.46m2.78 22.681c-.483.145-.922.415-1.355.675a9 9 0 0 0-2.211 1.928c-.324.405-.644.831-.838 1.312-.24.596-.373 1.236-.444 1.874-.047.427.043.859.094 1.285.078.657.184 1.31.292 1.963l.4 2.004a178 178 0 0 0 1.282 5.918q.385 1.615.82 3.219a135 135 0 0 0 1.707 5.775c.33 1.038.558 1.717.899 2.75.308.935.581 1.773.898 2.705a145 145 0 0 0 1.423 4.005 121 121 0 0 0 2.849 6.979 220 220 0 0 0 2.736 5.945c.473.99.912 1.892 1.392 2.877 1.692 3.477 3.428 6.938 5.383 10.276.51.87 1.16 1.937 1.689 2.793a230 230 0 0 0 2.651 4.177 204 204 0 0 0 4.482 6.658c.951 1.346 1.933 2.67 2.922 3.989a342 342 0 0 0 2.477 3.273 252 252 0 0 0 2.973 3.786 278 278 0 0 0 3.848 4.686 792 792 0 0 0 4.671 5.525c1.218 1.43 2.43 2.863 3.648 4.293.736.864 1.469 1.729 2.217 2.583q.356.409.719.812c.423.466.926.989 1.361 1.445.894.937 1.791 1.871 2.655 2.835.483.539.912 1.027 1.367 1.592a63 63 0 0 1 1.505 1.974 126 126 0 0 1 3.005 4.277 89 89 0 0 1 2.965 4.667c.999 1.702 1.904 3.454 2.809 5.207a94 94 0 0 1 2.497 5.174c.317.719.633 1.459.921 2.19a70 70 0 0 1 1.591 4.558 76 76 0 0 1 1.345 4.74c.322 1.308.604 2.626.874 3.945q.372 1.82.711 3.646c.062.334.127.667.184 1.001.088.519.237 1.497.317 2.065.143 1.011.28 2.027.361 3.045.048.609.072 1.317.087 1.928.017.674.022 1.346.03 2.02q.03 2.324.036 4.647c.006 2.037.009 4.074-.032 6.11-.035 1.747-.079 3.499-.284 5.236a57 57 0 0 1-.438 3.108 94 94 0 0 1-.524 2.74 69 69 0 0 1-.56 2.47c-.089.368-.183.735-.272 1.103-.227.935-.441 1.874-.688 2.804-.074.279-.148.558-.23.835-.454 1.525-.528 1.694-1.04 3.212-.322.955-.644 1.911-.984 2.86a81 81 0 0 1-1.952 4.969 81 81 0 0 1-1.866 3.976 82 82 0 0 1-2.049 3.854 75 75 0 0 1-2.695 4.364 96 96 0 0 1-1.709 2.487 106 106 0 0 1-2.386 3.242 74 74 0 0 1-2.507 3.12 86 86 0 0 1-1.386 1.565 217 217 0 0 1-2.764 2.988c-.161.172-1.053 1.122-1.233 1.319q-.459.504-.912 1.013c-1.047 1.178-2.066 2.381-3.094 3.576a296 296 0 0 0-4.803 5.688 224 224 0 0 0-3.33 4.19c-.931 1.195-1.852 2.398-2.774 3.6-2.213 2.886-4.393 5.798-6.495 8.766a210 210 0 0 0-4.798 7.118 206 206 0 0 0-4.809 7.745c-1.614 2.746-3.112 5.559-4.556 8.397-.714 1.403-1.408 2.816-2.11 4.226-.459.922-.814 1.614-1.266 2.537a105 105 0 0 0-3 6.642c-.999 2.458-1.879 4.965-2.736 7.476a263 263 0 0 0-2.693 8.305q-.436 1.428-.84 2.864a140 140 0 0 0-1.454 5.697c-.019.08-.651 2.82-.662 2.94-.25 2.776-.447 5.558-.562 8.343-.015.369.079.738.172 1.095.131.503.494 1.297.826 1.713.346.434.721.849 1.132 1.223.334.304.706.567 1.093.799 1.082.65 1.577.851 2.853.853 59.814.102 119.629.08 179.443.124.303 0 1.393.026 1.714-.001.502-.042 1.018-.037 1.5-.184.484-.147.919-.426 1.353-.686.376-.226 1.977-1.42 2.225-1.73.727-.908.964-1.575.95-2.67a102 102 0 0 0-.209-5.243c-.023-.348-.131-.685-.197-1.028-.138-.716-.266-1.386-.409-2.101-.522-2.615-1.087-5.223-1.762-7.804a129 129 0 0 0-2.162-7.324 185 185 0 0 0-1.097-3.244 187 187 0 0 0-2.146-5.905 156 156 0 0 0-2.839-6.901c-1.248-2.832-2.591-5.622-3.977-8.389a200 200 0 0 0-3.762-7.188 161 161 0 0 0-5.21-8.736 170 170 0 0 0-4.73-7.015c-.914-1.285-1.85-2.553-2.783-3.824-.742-1.011-1.48-2.024-2.233-3.027-.921-1.227-1.859-2.441-2.796-3.656a323 323 0 0 0-4.065-5.184c-1.343-1.67-2.736-3.297-4.128-4.926-.651-.762-1.308-1.52-1.948-2.292-.367-.443-.733-.904-1.093-1.353-.774-.965-1.335-1.669-2.119-2.628a41 41 0 0 0-1.192-1.401c-.747-.832-1.53-1.632-2.301-2.442-1.102-1.159-2.207-2.316-3.272-3.509a45 45 0 0 1-.789-.901 56 56 0 0 1-2.139-2.721 106 106 0 0 1-3.244-4.619 89 89 0 0 1-2.263-3.548 95 95 0 0 1-2.141-3.792 132 132 0 0 1-1.132-2.133 79 79 0 0 1-2.758-5.889 64 64 0 0 1-1.483-3.958 95 95 0 0 1-2.099-7.14q-.181-.716-.358-1.433c-.238-.959-.434-1.743-.646-2.707a64 64 0 0 1-.781-4.195 59 59 0 0 1-.462-3.937 85 85 0 0 1-.219-4.038 168 168 0 0 1-.063-9.11c.035-1.792.09-3.586.214-5.375a60 60 0 0 1 .555-4.918 68 68 0 0 1 .785-4.211c.206-.947.386-1.676.617-2.616.423-1.722.865-3.439 1.376-5.138a76 76 0 0 1 2.356-6.704q.594-1.465 1.254-2.902c.443-.965.911-1.918 1.376-2.873l.502-1.034c1.044-2.132 2.129-4.245 3.319-6.3q.286-.495.583-.985a52 52 0 0 1 1.754-2.67 80 80 0 0 1 3.14-4.181c2.14-2.68 4.395-5.268 6.73-7.779 1.461-1.571 2.94-3.123 4.405-4.69.49-.524 1.107-1.184 1.588-1.722.33-.369.884-1.012 1.206-1.401a143 143 0 0 0 2.091-2.584c.588-.739 1.172-1.481 1.767-2.215.729-.9 1.46-1.797 2.184-2.7a430 430 0 0 0 3.029-3.823 221 221 0 0 0 4.333-5.691c2.067-2.821 4.018-5.725 5.941-8.646a442 442 0 0 0 2.449-3.77 142 142 0 0 0 2.263-3.609c1.25-2.077 2.413-4.204 3.559-6.34a294 294 0 0 0 3.023-5.787 189 189 0 0 0 3.786-7.845 112 112 0 0 0 2.05-4.802 123 123 0 0 0 2.225-6.132c.409-1.216.796-2.438 1.2-3.655.244-.737.5-1.469.744-2.206a108 108 0 0 0 1.077-3.418 91 91 0 0 0 1.115-4.163c.247-1.01.467-2.027.689-3.043q.61-2.786 1.177-5.582c.072-.355.873-3.625.804-4.767-.021-.351-.154-.687-.257-1.023a7.8 7.8 0 0 0-.741-1.683 6 6 0 0 0-.47-.719c-.544-.691-1.211-1.459-1.957-1.958-.303-.203-.624-.404-.979-.489-.428-.102-.88-.046-1.32-.059-.221-.007-1.534-.005-1.72-.005-58.513.075-117.025.153-175.538.226-.358 0-.715-.005-1.073-.005-.664 0-1.327.012-1.991.01-.287-.001-1.415-.025-1.721 0-.504.041-1.021.036-1.505.181"/></svg>
