<svg
  xmlns="http://www.w3.org/2000/svg"
  viewBox="53.01 42.541 376.342 376.342"
  width="64"
  height="64"
>
  <path
    d="M238.734 274.754c.715-.2 1.629-.189 2.355-.184.778.005 1.768.021 2.539.184.602.128 1.149.383 1.651.734.225.157.431.34.629.529.231.219.463.441.656.694.354.465.712 1.246.962 1.759.171.351.345.7.508 1.054.168.365.334.731.487 1.102.145.351.276.708.407 1.064.209.57.564 1.618.759 2.188.131.384.26.769.394 1.152.294.84.582 1.631.897 2.464.285.754.643 1.69.969 2.43.309.701.691 1.46 1.046 2.139.381.729.687 1.277 1.095 1.99 1.186 2.074 2.463 4.099 3.867 6.033 1.471 2.026 3.097 3.933 4.777 5.788q1.0155 1.122 2.055 2.223c.443.468.895.945 1.351 1.401.43.431.836.813 1.275 1.234 1.031.988 1.435 1.364 2.438 2.379.347.351.862.907 1.181 1.281.389.456.822 1.017 1.181 1.495.416.555.75 1.023 1.143 1.594 1.234 1.793 2.372 3.655 3.33 5.611.383.781.732 1.577 1.057 2.383.273.677.372.956.629 1.64.225.6.406 1.064.614 1.671.514 1.498.933 3.035 1.191 4.599.059.356.111.713.153 1.071.089.77.151 1.704.187 2.475.043.915.056 1.716.057 2.633.001.905-.012 1.734-.053 2.637-.035.771-.099 1.762-.191 2.531-.046.383-.106.764-.17 1.144-.286 1.695-.725 3.362-1.237 5.002-.176.564-.371 1.122-.551 1.684-.145.453-.277.911-.428 1.363-.286.859-.53 1.526-.917 2.343-.478 1.01-.876 1.656-1.469 2.635-.154.255-.316.506-.477.757-.494.767-1.011 1.518-1.543 2.259-.274.382-.751 1.03-1.038 1.409-.298.394-.592.792-.9 1.179-.619.777-1.189 1.431-1.887 2.139-1.036 1.051-2.151 2.03-3.297 2.96-.798.648-1.615 1.272-2.455 1.865-.552.39-1.161.802-1.738 1.155-.575.353-1.185.688-1.783 1.001-.615.322-1.195.606-1.826.895-.927.424-1.871.808-2.821 1.179-.303.118-.607.232-.91.35-.279.109-.556.224-.835.333-.622.243-1.01.392-1.646.599-.529.172-1.189.365-1.728.496-1.029.251-2.077.427-3.131.53-.921.09-2.118.151-3.034.185-1.669.062-3.341.075-5.011.044-1.02-.019-2.215-.06-3.235-.122-.961-.058-1.671-.113-2.608-.245-1.242-.175-2.464-.465-3.657-.852-.858-.278-1.688-.62-2.519-.968-.675-.283-1.341-.563-2.009-.863-1.37-.615-2.716-1.282-4.03-2.008-.445-.246-1.354-.761-1.791-1.044-.476-.308-.949-.62-1.409-.951-.858-.618-1.572-1.226-2.36-1.929-.38-.339-.746-.693-1.124-1.035-.413-.373-.834-.738-1.247-1.11-.861-.776-1.695-1.585-2.481-2.437-.384-.416-.813-.903-1.166-1.346-.763-.958-1.441-1.985-2.08-3.028-.663-1.082-1.278-2.194-1.835-3.334-.453-.927-.87-1.871-1.267-2.823-.13-.312-.256-.625-.384-.938-.274-.668-.438-1.042-.685-1.719-.359-.982-.65-1.981-.89-2.998-.182-.769-.374-1.705-.503-2.484-.07-.423-.136-.846-.186-1.272-.193-1.644-.188-3.303-.183-4.955.004-1.351.012-2.701.09-4.051.025-.424.052-.848.093-1.27.169-1.722.545-3.423 1.027-5.083.27-.93.587-1.843.931-2.747.455-1.195.956-2.373 1.529-3.517s1.216-2.251 1.896-3.334c.342-.545.651-1.019 1.017-1.548.376-.543.723-1.015 1.124-1.541.626-.822 1.276-1.625 1.96-2.399.26-.295.523-.588.793-.874.562-.596 1.379-1.402 1.957-1.972 1.435-1.416 2.889-2.812 4.313-4.238.626-.627 1.445-1.455 2.049-2.109 1.111-1.203 2.14-2.481 3.12-3.792.493-.659.927-1.259 1.391-1.939 1.568-2.295 2.939-4.72 4.236-7.176.491-.93.872-1.666 1.331-2.611.381-.783.849-1.779 1.177-2.588.171-.421.325-.849.478-1.277.148-.414.286-.832.425-1.25.223-.67.55-1.683.749-2.367.106-.362.198-.727.3-1.09.139-.496.411-1.474.6-1.966.112-.293.224-.589.384-.859.161-.271.367-.513.572-.751.589-.684 1.157-1.088 1.875-1.695.248-.209.47-.451.74-.631.224-.149.469-.276.728-.348M235.798 88.308c.423-.049.847-.08 1.272-.107 1.308-.084 2.617-.08 3.927-.077 1.415.003 2.831.006 4.244.086.441.025.883.053 1.323.098.745.076 1.498.206 2.233.354 1.306.263 2.595.618 3.865 1.021.611.194 1.127.375 1.732.582.526.18 1.056.35 1.579.538 1.113.401 1.829.687 2.894 1.196.472.226.938.466 1.399.713.765.41 1.471.814 2.198 1.269 1.012.634 1.992 1.319 2.934 2.053 1.326 1.033 2.576 2.162 3.768 3.346.998.991 1.964 2.022 2.845 3.119.427.532.869 1.136 1.261 1.694.789 1.124 1.524 2.287 2.212 3.475.248.428.699 1.237.931 1.682.569 1.093.939 1.806 1.407 2.937.422 1.018.709 1.885 1.04 2.936.163.519.327 1.038.472 1.562.232.838.43 1.653.592 2.501.176.922.312 1.853.404 2.788.071.722.122 1.486.156 2.21.074 1.577.079 3.159.01 4.736-.033.757-.088 1.597-.166 2.352-.185 1.781-.53 3.546-.99 5.275-.274 1.029-.593 2.047-.968 3.044-.254.675-.571 1.429-.864 2.087-.609 1.366-1.287 2.699-2.022 4.001-.268.475-.733 1.27-1.029 1.741-.647 1.032-.9 1.447-1.651 2.386-.981 1.227-2.087 2.34-3.202 3.444-.481.477-1.712 1.683-2.182 2.144-1.168 1.147-2.34 2.29-3.492 3.452-.616.622-1.599 1.624-2.196 2.276-1.145 1.252-2.201 2.585-3.211 3.946-1.864 2.512-3.539 5.163-5.016 7.921-.552 1.031-1.082 2.074-1.56 3.142-.169.377-.335.756-.489 1.14-.316.788-.669 1.799-.947 2.598-.259.745-.648 1.879-.889 2.633-.258.805-.49 1.619-.757 2.421-.212.637-.515 1.535-.833 2.136-.305.576-.777 1.196-1.2 1.691-.203.237-.415.467-.636.687-.477.476-1.003.915-1.611 1.219-.531.266-1.411.431-1.991.482-.357.031-.717.021-1.076.019-.768-.005-1.539-.022-2.294-.184-.653-.14-1.289-.402-1.866-.734-.565-.325-1.119-.74-1.56-1.223-.204-.223-.381-.471-.543-.726-.335-.529-.69-1.332-.921-1.898-.243-.595-.556-1.46-.788-2.102-.341-.942-.678-1.886-1.02-2.828-.379-1.043-.758-2.086-1.173-3.115-.146-.36-.293-.72-.449-1.076-.304-.693-.692-1.491-1.03-2.168-.358-.716-.733-1.437-1.11-2.144-.369-.692-.765-1.416-1.15-2.099-.512-.907-1.038-1.807-1.599-2.685-.439-.686-.896-1.347-1.38-2.006-.312-.425-.638-.84-.962-1.256-.205-.263-.892-1.103-1.088-1.344-.556-.684-.811-1.006-1.378-1.695-.49-.595-.999-1.203-1.497-1.791-.512-.604-.994-1.167-1.519-1.759-.413-.466-1.034-1.159-1.478-1.606-.798-.804-1.682-1.523-2.538-2.263-.94-.813-1.475-1.259-2.356-2.141-.299-.3-.898-1.011-1.162-1.333-.782-.954-1.518-1.947-2.213-2.966-.371-.543-.678-1.017-1.029-1.573-.342-.541-.647-1.034-.967-1.589-.799-1.384-1.514-2.819-2.101-4.306-.669-1.695-1.154-3.461-1.55-5.238-.333-1.494-.602-3.005-.765-4.527-.078-.73-.134-1.545-.168-2.278-.051-1.12-.058-2.241-.027-3.362.038-1.367.131-2.735.293-4.093.069-.578.153-1.155.257-1.728.05-.279.101-.558.165-.834.128-.553.265-1.104.411-1.652.114-.427.398-1.302.537-1.712.455-1.346.966-2.672 1.53-3.976.3-.693.579-1.303.911-1.981.294-.599.651-1.293.985-1.873.163-.283.334-.562.509-.838.82-1.297 1.752-2.52 2.737-3.695.486-.58.663-.769 1.158-1.339.297-.342.821-.96 1.128-1.294.384-.419.772-.835 1.166-1.245.197-.205.403-.403.608-.6.639-.613 1.302-1.2 1.992-1.755 1.037-.834 2.126-1.6 3.242-2.324 1.164-.755 2.362-1.469 3.609-2.08 1.311-.642 2.673-1.166 4.037-1.682.309-.117.616-.236.926-.349.637-.232 1.209-.427 1.859-.621.66-.197 1.486-.416 2.15-.573.779-.184 1.682-.372 2.471-.503.425-.071.852-.138 1.28-.187"
  />
  <path
    d="M146.245 42.796c.531-.054 1.066-.065 1.599-.089.563-.026 1.271-.028 1.831-.034.328-.003.657-.01.985-.01 60.573-.039 121.146-.078 181.719-.107.564 0 1.348.029 1.912.063.548.033 1.282.091 1.826.177.308.049.613.115.917.181.882.192 1.751.44 2.611.714.96.306 1.936.588 2.833 1.062.455.24.88.533 1.305.822.835.569 1.37 1.03 2.125 1.703.33.294.645.605.975.9.31.277.633.538.944.813.899.796 1.783 1.628 2.481 2.613.55.776.942 1.544 1.376 2.388.192.373.396.74.561 1.126.193.451.354.915.51 1.38.164.489.403 1.471.513 1.952.087.379.465 2.081.466 2.452.131 40.789.129 81.579.189 122.368.001.532-.007 1.065-.006 1.597.002 1.218.026 1.663 0 2.861-.014.653-.038 1.709-.183 2.367-.072.325-.193.638-.318.946-.287.708-.72 1.368-1.15 1.99-.498.721-.607.83-1.253 1.361-.535.44-1.028.832-1.684 1.086-.638.247-1.649.388-2.311.474-1.118.145-1.481.141-2.613.26-.769.081-1.998.24-2.764.342-.749.1-1.838.24-2.588.392-1.209.246-2.377.672-3.518 1.132-1.16.468-1.74.756-2.844 1.314-.892.451-1.683.861-2.539 1.377-.872.526-1.514.985-2.354 1.56-.954.653-1.533 1.025-2.447 1.743-.987.775-1.544 1.285-2.447 2.172-.22.216-.427.443-.635.67-.667.727-1.299 1.486-1.904 2.266-.849 1.094-1.649 2.233-2.355 3.425-.727 1.229-1.355 2.517-1.927 3.824-.571 1.306-1.09 2.64-1.498 4.006-.203.678-.377 1.378-.535 2.067-.16.701-.287 1.324-.413 2.031-.221 1.237-.385 2.483-.52 3.732-.047.434-.103.868-.136 1.303-.063.833-.065 1.45-.002 2.283.033.437.089.872.138 1.307.104.929.23 1.857.378 2.78.164 1.021.357 2.038.585 3.047.146.645.322 1.367.505 2.003.348 1.21.791 2.39 1.284 3.548.36.845.743 1.681 1.183 2.487.15.275.304.549.469.816.327.531.77 1.159 1.135 1.663.368.509.802 1.084 1.19 1.579.369.47.755.926 1.124 1.396.322.409.648.814.955 1.234.208.285.379.596.589.88.188.254.393.496.604.731.22.245.426.51.688.71.324.247.718.387 1.055.616.516.351 1.432 1.18 1.897 1.56.874.713 1.563 1.232 2.508 1.865.379.254 1.21.72 1.603.935.593.324 1.125.598 1.73.9.613.306 1.162.572 1.786.855.4.181 1.31.582 1.732.736.492.18.986.353 1.487.506.468.143.943.264 1.418.381 1.108.274 1.829.413 2.967.581.363.054 1.526.163 1.877.198.744.074 1.203.12 1.946.2.317.034.634.065.951.104.746.092 1.942.261 2.566.476.839.288 1.464.802 2.111 1.377.66.587.851.804 1.315 1.56.189.308.384.617.518.953.194.484.351.984.461 1.493.075.349.072.711.091 1.067.035.648.042 1.98.042 2.605.021 39.459.04 78.918.056 118.377 0 .536-.007 1.071-.006 1.607.002 1.229.027 1.648 0 2.862-.019.849-.052 1.832-.183 2.673-.142.91-.437 2.01-.681 2.896-.228.829-.474 1.684-.787 2.487-.213.547-.743 1.721-1.04 2.263-.649 1.188-1.463 2.275-2.356 3.29-.669.76-1.462 1.568-2.221 2.239-.399.353-.807.698-1.234 1.017-.907.677-1.708 1.13-2.692 1.682-.409.229-.813.473-1.238.671-1.047.488-2.146.839-3.268 1.101-.852.199-1.718.376-2.59.461-.544.053-1.091.066-1.637.091-.389.018-1.459.034-1.837.034-59.171.042-118.341.076-177.512.117-.721.001-1.441.013-2.162.015-.995.002-1.992-.003-2.987-.036-.584-.02-1.27-.054-1.853-.111-.302-.03-.604-.062-.904-.11-.56-.09-1.272-.261-1.82-.406-.523-.138-1.192-.338-1.708-.506-1.021-.333-1.862-.595-2.834-1.046-.614-.285-1.764-.922-2.355-1.315-.735-.489-1.394-1.031-2.049-1.621-1.098-.988-2.124-2.059-3.04-3.219-.669-.847-1.091-1.468-1.628-2.401-.232-.403-.441-.818-.654-1.231-.188-.364-.387-.724-.547-1.101-.452-1.064-.748-2.173-1.005-3.296-.175-.762-.374-1.679-.467-2.454-.092-.769-.112-1.764-.124-2.535-.02-1.282-.002-1.534-.003-2.839-.02-39.687-.049-79.374-.067-119.061 0-.648.008-1.959.058-2.624.029-.386.058-.774.136-1.153.118-.574.448-1.455.707-1.989.362-.745.802-1.644 1.381-2.28.19-.209.425-.371.646-.547.552-.439 1.004-.795 1.671-1.057.627-.246 1.567-.397 2.221-.491 1.069-.154 1.406-.15 2.489-.273.44-.05.88-.11 1.319-.168.175-.023 2.398-.325 2.592-.353.867-.127 1.275-.187 2.098-.378.749-.174 1.532-.415 2.249-.661.457-.157.912-.324 1.359-.507.45-.184.893-.386 1.332-.594 1.152-.545 1.854-.927 2.967-1.56.36-.205 1.114-.676 1.462-.9.732-.471 1.451-.962 2.161-1.465 1.19-.842 2.344-1.737 3.427-2.714.319-.287.946-.873 1.238-1.191.371-.404.738-.812 1.086-1.236 1.062-1.296 1.981-2.703 2.829-4.147.322-.549.645-1.117.95-1.676.624-1.144 1.213-2.308 1.755-3.494.176-.385.571-1.275.721-1.681.396-1.075.631-1.809.917-2.905.24-.919.363-1.56.551-2.478.113-.55.241-1.098.336-1.651.078-.452.123-1.343.153-1.774.031-.444.072-.887.096-1.331.073-1.367.086-2.736-.013-4.102-.122-1.686-.434-3.352-.817-4.997-.334-1.436-.724-2.863-1.223-4.251-.376-1.046-.816-2.069-1.289-3.074-.469-.995-.975-1.974-1.519-2.93-.34-.598-.732-1.248-1.107-1.826-.892-1.373-1.89-2.679-2.978-3.902-.41-.461-.837-.914-1.274-1.35-.211-.21-.422-.42-.642-.62-.964-.874-1.517-1.351-2.569-2.11-1.158-.836-2.386-1.568-3.625-2.277-1.686-.965-3.418-1.857-5.208-2.615-.276-.117-.551-.237-.832-.339-.491-.179-.984-.352-1.483-.504-.47-.143-.946-.264-1.423-.382-1.12-.277-1.815-.412-2.966-.582-.363-.054-1.526-.163-1.877-.198-.567-.057-1.379-.138-1.946-.199-.317-.034-.634-.066-.951-.105-.748-.092-1.938-.26-2.566-.476-.836-.288-1.466-.803-2.111-1.376-.661-.587-.851-.804-1.315-1.561-.189-.308-.384-.617-.518-.953-.194-.484-.351-.984-.461-1.493-.075-.349-.072-.711-.091-1.067-.035-.647-.042-1.98-.042-2.605-.019-40.948-.049-81.896-.05-122.844 0-.727.069-1.96.183-2.677.142-.895.461-2.074.705-2.946.15-.536.543-1.882.763-2.437.196-.494.403-.986.648-1.458.132-.254 1.332-2.119 1.447-2.286.269-.391.552-.774.842-1.15.84-1.089 1.765-2.12 2.804-3.024.358-.311.725-.613 1.11-.891.845-.61 1.783-1.142 2.692-1.649.42-.234.835-.478 1.269-.685.979-.468 1.95-.814 2.991-1.12.899-.265 1.913-.416 2.346-.46m2.78 22.681c-.483.145-.922.415-1.355.675-.782.47-1.648 1.225-2.211 1.928-.324.405-.644.831-.838 1.312-.24.596-.373 1.236-.444 1.874-.047.427.043.859.094 1.285.078.657.184 1.31.292 1.963.005.03.396 1.984.4 2.004.399 1.979.816 3.954 1.282 5.918.255 1.077.531 2.15.82 3.219.523 1.938 1.098 3.862 1.707 5.775.33 1.038.558 1.717.899 2.75.308.935.581 1.773.898 2.705.456 1.341.928 2.678 1.423 4.005.508 1.361 1.037 2.714 1.594 4.056.416 1.001.817 1.93 1.255 2.923.881 1.996 1.796 3.976 2.736 5.945.473.99.912 1.892 1.392 2.877 1.692 3.477 3.428 6.938 5.383 10.276.51.87 1.16 1.937 1.689 2.793.868 1.402 1.753 2.794 2.651 4.177 1.457 2.244 2.938 4.473 4.482 6.658.951 1.346 1.933 2.67 2.922 3.989.821 1.095 1.643 2.188 2.477 3.273.978 1.272 1.971 2.533 2.973 3.786 1.263 1.578 2.551 3.136 3.848 4.686 1.547 1.85 3.107 3.689 4.671 5.525 1.218 1.43 2.43 2.863 3.648 4.293.736.864 1.469 1.729 2.217 2.583.238.272.476.544.719.812.423.466.926.989 1.361 1.445.894.937 1.791 1.871 2.655 2.835.483.539.912 1.027 1.367 1.592.476.591 1.057 1.366 1.505 1.974 1.033 1.403 2.031 2.832 3.005 4.277 1.03 1.528 2.032 3.077 2.965 4.667.999 1.702 1.904 3.454 2.809 5.207.879 1.702 1.723 3.421 2.497 5.174.317.719.633 1.459.921 2.19.59 1.497 1.106 3.024 1.591 4.558.495 1.566.953 3.145 1.345 4.74.322 1.308.604 2.626.874 3.945.248 1.213.485 2.428.711 3.646.062.334.127.667.184 1.001.088.519.237 1.497.317 2.065.143 1.011.28 2.027.361 3.045.048.609.072 1.317.087 1.928.017.674.022 1.346.03 2.02.019 1.549.032 3.098.036 4.647.006 2.037.009 4.074-.032 6.11-.035 1.747-.079 3.499-.284 5.236-.137 1.157-.245 1.968-.438 3.108-.124.732-.372 2.009-.524 2.74-.201.965-.331 1.521-.56 2.47-.089.368-.183.735-.272 1.103-.227.935-.441 1.874-.688 2.804-.074.279-.148.558-.23.835-.454 1.525-.528 1.694-1.04 3.212-.322.955-.644 1.911-.984 2.86-.6 1.675-1.243 3.337-1.952 4.969-.583 1.343-1.211 2.667-1.866 3.976-.651 1.301-1.329 2.589-2.049 3.854-.846 1.486-1.75 2.939-2.695 4.364-.556.839-1.127 1.666-1.709 2.487-.776 1.095-1.569 2.177-2.386 3.242-.812 1.058-1.639 2.107-2.507 3.12-.408.477-.965 1.099-1.386 1.565-.909 1.007-1.836 1.998-2.764 2.988-.161.172-1.053 1.122-1.233 1.319-.306.336-.61.673-.912 1.013-1.047 1.178-2.066 2.381-3.094 3.576-1.619 1.881-3.232 3.767-4.803 5.688-1.129 1.381-2.234 2.782-3.33 4.19-.931 1.195-1.852 2.398-2.774 3.6-2.213 2.886-4.393 5.798-6.495 8.766-1.654 2.336-3.241 4.717-4.798 7.118-1.654 2.549-3.269 5.125-4.809 7.745-1.614 2.746-3.112 5.559-4.556 8.397-.714 1.403-1.408 2.816-2.11 4.226-.459.922-.814 1.614-1.266 2.537-1.069 2.182-2.085 4.391-3 6.642-.999 2.458-1.879 4.965-2.736 7.476-.94 2.754-1.845 5.521-2.693 8.305-.29.952-.572 1.906-.84 2.864-.527 1.888-1.007 3.789-1.454 5.697-.019.08-.651 2.82-.662 2.94-.25 2.776-.447 5.558-.562 8.343-.015.369.079.738.172 1.095.131.503.494 1.297.826 1.713.346.434.721.849 1.132 1.223.334.304.706.567 1.093.799 1.082.65 1.577.851 2.853.853 59.814.102 119.629.08 179.443.124.303 0 1.393.026 1.714-.001.502-.042 1.018-.037 1.5-.184.484-.147.919-.426 1.353-.686.376-.226 1.977-1.42 2.225-1.73.727-.908.964-1.575.95-2.67-.023-1.749-.096-3.498-.209-5.243-.023-.348-.131-.685-.197-1.028-.138-.716-.266-1.386-.409-2.101-.522-2.615-1.087-5.223-1.762-7.804-.645-2.463-1.373-4.904-2.162-7.324-.354-1.086-.723-2.165-1.097-3.244-.686-1.979-1.394-3.95-2.146-5.905-.893-2.322-1.836-4.625-2.839-6.901-1.248-2.832-2.591-5.622-3.977-8.389-1.211-2.418-2.454-4.821-3.762-7.188-1.64-2.968-3.386-5.878-5.21-8.736-1.517-2.377-3.096-4.716-4.73-7.015-.914-1.285-1.85-2.553-2.783-3.824-.742-1.011-1.48-2.024-2.233-3.027-.921-1.227-1.859-2.441-2.796-3.656-1.341-1.739-2.689-3.473-4.065-5.184-1.343-1.67-2.736-3.297-4.128-4.926-.651-.762-1.308-1.52-1.948-2.292-.367-.443-.733-.904-1.093-1.353-.774-.965-1.335-1.669-2.119-2.628-.365-.447-.808-.974-1.192-1.401-.747-.832-1.53-1.632-2.301-2.442-1.102-1.159-2.207-2.316-3.272-3.509-.266-.298-.531-.596-.789-.901-.746-.88-1.449-1.797-2.139-2.721-1.126-1.508-2.2-3.053-3.244-4.619-.778-1.167-1.541-2.345-2.263-3.548-.748-1.245-1.451-2.514-2.141-3.792-.379-.702-.766-1.424-1.132-2.133-.993-1.926-1.926-3.887-2.758-5.889-.541-1.302-1.029-2.623-1.483-3.958-.8-2.35-1.485-4.735-2.099-7.14-.122-.477-.239-.955-.358-1.433-.238-.959-.434-1.743-.646-2.707-.305-1.389-.569-2.789-.781-4.195-.197-1.307-.353-2.62-.462-3.937-.111-1.344-.172-2.691-.219-4.038-.106-3.035-.122-6.074-.063-9.11.035-1.792.09-3.586.214-5.375.114-1.646.305-3.287.555-4.918.216-1.411.481-2.816.785-4.211.206-.947.386-1.676.617-2.616.423-1.722.865-3.439 1.376-5.138.682-2.268 1.466-4.509 2.356-6.704.396-.977.814-1.944 1.254-2.902.443-.965.911-1.918 1.376-2.873.168-.344.334-.69.502-1.034 1.044-2.132 2.129-4.245 3.319-6.3.191-.33.384-.659.583-.985.554-.909 1.145-1.797 1.754-2.67.997-1.43 2.052-2.819 3.14-4.181 2.14-2.68 4.395-5.268 6.73-7.779 1.461-1.571 2.94-3.123 4.405-4.69.49-.524 1.107-1.184 1.588-1.722.33-.369.884-1.012 1.206-1.401.842-1.016 1.27-1.553 2.091-2.584.588-.739 1.172-1.481 1.767-2.215.729-.9 1.46-1.797 2.184-2.7 1.017-1.268 2.026-2.543 3.029-3.823 1.471-1.877 2.924-3.768 4.333-5.691 2.067-2.821 4.018-5.725 5.941-8.646.824-1.252 1.638-2.51 2.449-3.77.768-1.194 1.531-2.392 2.263-3.609 1.25-2.077 2.413-4.204 3.559-6.34 1.029-1.918 2.037-3.847 3.023-5.787 1.315-2.589 2.592-5.198 3.786-7.845.716-1.587 1.409-3.184 2.05-4.802.801-2.021 1.532-4.071 2.225-6.132.409-1.216.796-2.438 1.2-3.655.244-.737.5-1.469.744-2.206.376-1.134.739-2.273 1.077-3.418.407-1.378.774-2.767 1.115-4.163.247-1.01.467-2.027.689-3.043.407-1.857.798-3.719 1.177-5.582.072-.355.873-3.625.804-4.767-.021-.351-.154-.687-.257-1.023-.188-.612-.421-1.13-.741-1.683-.144-.248-.293-.494-.47-.719-.544-.691-1.211-1.459-1.957-1.958-.303-.203-.624-.404-.979-.489-.428-.102-.88-.046-1.32-.059-.221-.007-1.534-.005-1.72-.005-58.513.075-117.025.153-175.538.226-.358 0-.715-.005-1.073-.005-.664 0-1.327.012-1.991.01-.287-.001-1.415-.025-1.721 0-.504.041-1.021.036-1.505.181"
  />
</svg>
